<?xml version="1.0" encoding="UTF-8" standalone="no"?>
<!-- Created with Inkscape (http://www.inkscape.org/) -->

<svg
   version="1.1"
   id="svg1"
   width="960"
   height="768.49323"
   viewBox="0 0 960 768.49323"
   sodipodi:docname="aqua-sticker-art.svg"
   inkscape:version="1.3.2 (091e20e, 2023-11-25, custom)"
   inkscape:export-filename="final-aqua-sticker-art.png"
   inkscape:export-xdpi="1200"
   inkscape:export-ydpi="1200"
   xmlns:inkscape="http://www.inkscape.org/namespaces/inkscape"
   xmlns:sodipodi="http://sodipodi.sourceforge.net/DTD/sodipodi-0.dtd"
   xmlns:xlink="http://www.w3.org/1999/xlink"
   xmlns="http://www.w3.org/2000/svg"
   xmlns:svg="http://www.w3.org/2000/svg">
  <defs
     id="defs1">
    <linearGradient
       id="linearGradient3"
       inkscape:collect="always">
      <stop
         style="stop-color:#000000;stop-opacity:1;"
         offset="0"
         id="stop3" />
      <stop
         style="stop-color:#338085;stop-opacity:1;"
         offset="1"
         id="stop4" />
    </linearGradient>
    <linearGradient
       inkscape:collect="always"
       xlink:href="#linearGradient3"
       id="linearGradient4"
       x1="120.16431"
       y1="418.17827"
       x2="858.72116"
       y2="418.17827"
       gradientUnits="userSpaceOnUse" />
  </defs>
  <sodipodi:namedview
     id="namedview1"
     pagecolor="#ffffff"
     bordercolor="#000000"
     borderopacity="0.25"
     inkscape:showpageshadow="2"
     inkscape:pageopacity="0.0"
     inkscape:pagecheckerboard="0"
     inkscape:deskcolor="#d1d1d1"
     inkscape:zoom="0.96422452"
     inkscape:cx="454.25105"
     inkscape:cy="457.88091"
     inkscape:window-width="1920"
     inkscape:window-height="1111"
     inkscape:window-x="-9"
     inkscape:window-y="-9"
     inkscape:window-maximized="1"
     inkscape:current-layer="layer1">
    <inkscape:page
       x="0"
       y="0"
       inkscape:label="1"
       id="page1"
       width="960"
       height="768.49323"
       margin="0"
       bleed="0"
       inkscape:export-filename="aqua-sticker-art.png"
       inkscape:export-xdpi="200"
       inkscape:export-ydpi="200" />
  </sodipodi:namedview>
  <g
     inkscape:groupmode="layer"
     id="layer1"
     inkscape:label="2"
     style="display:inline">
    <g
       id="g3"
       style="fill:url(#linearGradient4);stroke-width:0;stroke-dasharray:none">
      <path
         style="fill:url(#linearGradient4);fill-opacity:1;stroke:#225646;stroke-width:0;stroke-opacity:1;stroke-dasharray:none"
         d="m 121.34103,683.45079 85.04244,-87.11664 -27.54804,-1.87975 15.50032,-23.91396 88.73444,-1.10001 -16.5002,29.33369 h -32.26707 l -75.53428,85.06773 z"
         id="path1" />
      <path
         id="path22"
         style="display:inline;fill:url(#linearGradient4);stroke:#225646;stroke-width:0;stroke-dasharray:none"
         d="M 446.13086 568.83789 C 417.67597 568.57855 413.75075 590.62108 404.91992 607.21875 C 396.08909 623.81644 393.8822 657.01231 397.31641 666.86719 C 400.75062 676.72206 418.41124 683.72476 432.63867 679.05664 C 446.86613 674.38855 452.01816 669.9799 464.2832 620.96484 C 476.54823 571.9498 446.13086 568.83789 446.13086 568.83789 z M 433.3418 609.92773 C 433.75987 609.92258 434.11896 609.95688 434.41211 609.98438 C 434.41211 609.98438 441.87494 612.8445 438.57031 623.40234 C 435.26569 633.96018 435.69126 634.72997 431.10742 638.0293 C 426.52358 641.32861 421.51389 640.22832 420.02148 632.41992 C 418.52907 624.61152 425.45689 614.93244 428.22852 612.29297 C 430.30723 610.31338 432.08757 609.9432 433.3418 609.92773 z " />
      <path
         style="fill:url(#linearGradient4);fill-opacity:1;stroke:#225646;stroke-width:0;stroke-opacity:1;stroke-dasharray:none"
         d="m 481.25599,153.08524 -32.26706,46.01724 0.55,0.55001 102.85128,0.55 27.22065,-38.2524 0.22687,-0.93987 0.0972,-0.55096 -0.19446,-0.42132 c 0,0 -0.25927,-0.29169 -0.42132,-0.29169 -0.16205,0 -1.16674,0.29169 -1.16674,0.29169 l -1.23156,0.45373 -1.16674,0.55096 -37.62739,18.11689 -1.97698,0.22687 -3.37058,-0.48615 -2.26867,-1.13433 -1.45842,-1.55565 -0.90747,-1.87975 -0.84264,-1.97698 -0.25928,-2.00938 0.19446,-2.98168 1.77775,-13.08555 -0.0687,-0.93959 -0.4125,-0.59584 -0.43543,-0.18334 -0.75625,0.34375 -1.23752,0.91668 c 0,0 -21.38152,19.80025 -29.17328,23.74196 -7.79176,3.94172 -11.27514,-5.22506 -11.27514,-5.22506 l -3.11671,-16.95854 c 0,0 -0.14116,-3.86442 -1.28335,-2.2917 z"
         id="path6" />
      <path
         id="path26"
         style="display:inline;fill:url(#linearGradient4);stroke:#225646;stroke-width:0;stroke-dasharray:none"
         d="M 391.61328 289.17969 C 382.00439 288.69228 364.73636 296.93584 352.61523 354.68945 C 334.9845 438.6947 343.79886 495.73448 347.94727 511.29102 C 352.09567 526.84754 368.17101 533.58885 383.20898 530.99609 C 398.24697 528.40334 410.17387 504.55078 415.35938 504.55078 C 420.54489 504.55078 427.80469 529.44141 427.80469 529.44141 L 452.69531 529.44141 C 452.69531 529.44141 425.73147 487.95689 429.36133 469.28906 C 432.99118 450.62123 450.62104 434.54645 443.36133 375.43164 C 436.10162 316.31684 429.87882 313.72355 418.4707 302.83398 C 407.06258 291.94442 406.54389 294.01854 398.76562 291.42578 C 398.76562 291.42578 395.98096 289.40124 391.61328 289.17969 z M 397.69141 364.15625 C 398.24359 364.13791 398.71828 364.25966 399.10547 364.35742 C 399.10547 364.35742 408.96236 374.52618 404.59766 412.07031 C 400.23295 449.61444 400.79451 452.35144 394.74023 464.08398 C 388.68595 475.8165 382.0688 471.90569 380.09766 444.13867 C 378.12648 416.37167 387.27872 381.95637 390.93945 372.57031 C 393.68498 365.5308 396.03484 364.21126 397.69141 364.15625 z " />
      <path
         id="path7"
         style="fill:url(#linearGradient4);fill-opacity:1;stroke:#225646;stroke-width:0;stroke-opacity:1;stroke-dasharray:none"
         d="M 538.77539 422.61914 L 529.18164 439.47266 C 519.58844 456.32556 523.7368 463.84341 520.88477 483.28906 C 518.03274 502.73472 509.73633 529.44141 509.73633 529.44141 L 536.70117 529.70117 C 536.70117 529.70117 539.55325 504.29051 543.96094 501.95703 C 548.36862 499.62354 549.92338 500.66162 555.88672 500.40234 C 561.85006 500.14307 563.66602 504.81055 563.66602 504.81055 L 575.07422 529.95898 L 617.5957 530.21875 L 538.77539 422.61914 z M 548.03125 460.57617 C 548.37219 460.60406 548.6639 461.04891 548.88672 462.0293 C 550.1831 467.73335 563.66501 479.65921 558.99805 483.28906 C 554.33109 486.91892 550.70162 488.73387 544.73828 486.40039 C 544.73828 486.40039 539.81251 482.77192 541.88672 475.77148 C 543.60441 469.97424 546.38856 460.44182 548.03125 460.57617 z " />
      <path
         style="fill:url(#linearGradient4);fill-opacity:1;stroke:#225646;stroke-width:0;stroke-opacity:1;stroke-dasharray:none"
         d="m 510.51388,383.98733 20.48279,28.00178 c 0,0 -10.37103,7.519 -17.37148,44.8547 -7.00044,37.3357 -2.0742,59.37414 -9.85247,68.18951 -7.77828,8.81538 -21.51989,5.96335 -21.51989,5.96335 0,0 -10.6303,2.0742 -18.92713,-4.66697 -8.29682,-6.74117 -9.85247,-8.03754 -15.81581,-23.07554 -5.96335,-15.03799 5.96334,-93.33925 5.96334,-93.33925 0,0 3.88913,-18.40858 1.55565,-38.63209 -2.33348,-20.2235 -5.18551,-42.00266 -5.18551,-42.00266 0,0 28.00177,18.92713 32.92801,28.7796 4.92624,9.85248 -4.14841,51.85515 -4.14841,51.85515 0,0 -8.81537,37.3357 -8.03755,53.15152 0.77783,15.81582 -1.81493,10.6303 3.88914,18.92713 5.70407,8.29682 14.77872,-23.33482 14.77872,-23.33482 0,0 4.14841,-15.81582 7.77827,-30.85381 3.62986,-15.03799 7.00044,-41.22484 13.48233,-43.8176 z"
         id="path8" />
      <path
         id="path11"
         style="fill:url(#linearGradient4);fill-opacity:1;stroke:#225646;stroke-width:0;stroke-opacity:1;stroke-dasharray:none"
         d="M 598.01953 594.32422 C 595.55641 594.38904 592.1865 596.07476 588.55664 602.55664 C 581.29693 615.52042 571.44334 628.48448 568.33203 643.00391 C 565.22072 657.52333 562.11046 670.48639 578.18555 678.7832 C 594.26062 687.08002 606.70508 665.30078 606.70508 665.30078 C 606.70508 665.30078 613.96484 658.04186 615.00195 638.85547 C 616.03905 619.66909 613.44624 605.6689 607.74219 599.96484 C 602.03812 594.26078 602.03906 595.81641 602.03906 595.81641 C 602.03906 595.81641 600.48265 594.2594 598.01953 594.32422 z M 596.72266 625.89062 C 596.72266 625.89062 600.87108 626.92831 598.79688 638.5957 C 596.72267 650.2631 583.11085 655.8378 584.92578 642.35547 C 586.74071 628.87314 594.25955 626.02026 596.72266 625.89062 z " />
      <path
         style="fill:url(#linearGradient4);fill-opacity:1;stroke:#225646;stroke-width:0;stroke-opacity:1;stroke-dasharray:none"
         d="m 386.47148,279.40348 c 0,0 14.66685,-7.33342 37.03379,13.20016 22.36695,20.53359 56.83405,41.80052 70.76755,41.06718 13.93351,-0.73334 35.93378,-0.73334 35.93378,-0.73334 l 41.80052,-44.36722 -45.46723,-1.10001 c 0,0 -8.80011,-2.93337 -4.40005,-9.53346 4.40005,-6.60008 31.53372,-39.60049 31.53372,-39.60049 l -145.20181,-0.36667 -33.00041,-33.73375 -30.06704,30.43371 41.43385,41.43385 z"
         id="path14" />
      <path
         id="path13"
         style="fill:url(#linearGradient4);stroke:#225646;stroke-width:0;stroke-dasharray:none"
         d="M 258.75781 610.33594 C 243.71984 611.37304 245.53402 610.59387 223.23633 626.15039 C 200.93864 641.70692 200.16065 661.15336 201.45703 666.85742 C 202.75341 672.56148 227.38501 703.15643 260.57227 659.85742 C 293.75952 616.55843 258.75781 610.33594 258.75781 610.33594 z M 246.82422 632.56641 C 247.50862 632.55919 248.19939 632.5842 248.9043 632.63281 C 248.9043 632.63281 255.64571 634.18856 249.55273 645.07812 C 243.45977 655.96769 234.77512 657.135 231.01562 655.70898 C 227.25613 654.28297 227.77393 646.63425 230.10742 643.26367 C 232.4409 639.89309 233.73709 637.94822 237.75586 635.35547 C 241.02111 633.24885 243.8585 632.59768 246.82422 632.56641 z " />
      <path
         style="fill:url(#linearGradient4);stroke:#225646;stroke-width:0;stroke-dasharray:none"
         d="m 410.43345,568.85092 c 0,0 -29.8167,110.45145 -61.96689,111.22928 -32.15019,0.77782 -7.25972,-48.22529 -25.14975,-47.96601 -17.89002,0.25928 -21.2606,48.22528 -21.2606,48.22528 l -36.03933,1.03711 c 0,0 21.77916,-32.15019 23.59409,-51.07732 1.81493,-18.92713 -13.48234,-30.85381 -13.48234,-30.85381 l 15.038,-29.55743 c 0,0 38.11353,-4.40769 47.44745,13.48234 9.33393,17.89002 0.25928,32.66874 11.14886,34.74294 10.88958,2.07421 24.63119,-48.74383 24.63119,-48.74383 z"
         id="path24" />
      <path
         id="path25"
         style="fill:url(#linearGradient4);stroke:#225646;stroke-width:0;stroke-dasharray:none"
         d="M 340.92969 357.39648 C 338.66664 356.95533 334.67833 360.80497 328.16992 370.70508 C 302.13629 410.30554 222.57031 531.30664 222.57031 531.30664 L 254.83594 530.93945 C 254.83594 530.93945 270.23632 493.53908 282.70312 481.07227 C 295.16993 468.60546 299.93704 473.73903 306.53711 477.03906 C 313.13718 480.3391 301.4043 531.30664 301.4043 531.30664 L 339.9043 530.57422 C 339.9043 530.57422 332.57157 471.17209 336.23828 429.73828 C 338.98831 398.66292 347.71883 358.71994 340.92969 357.39648 z M 322.52539 405.74414 C 328.39701 405.41216 313.19973 453.36709 313.07617 453.86133 C 312.94653 454.37988 306.72285 446.86183 300.11133 449.19531 C 300.11133 449.19531 313.0755 411.73067 321.50195 406.15625 C 321.89694 405.89495 322.23662 405.76047 322.52539 405.74414 z " />
      <path
         style="fill:url(#linearGradient4);stroke:#225646;stroke-width:0;stroke-dasharray:none"
         d="m 609.77426,568.34041 33.36708,-0.36667 c 0,0 15.76686,16.86687 8.80011,46.20057 -6.96676,29.3337 0,38.13381 8.80011,22.00027 8.80011,-16.13353 10.26679,-43.63387 8.80011,-52.80065 -1.46669,-9.16678 -4.40006,-15.40019 -4.40006,-15.40019 h 26.767 c 0,0 6.96676,17.60021 0.36667,39.60049 -6.60008,22.00027 -4.76672,19.43357 -17.23354,41.06718 -12.46683,21.6336 -14.30018,31.16705 -34.10043,30.43371 -19.80025,-0.73334 -19.80025,-4.03338 -21.26693,-15.40019 -1.46669,-11.36681 11.73348,-35.56711 11.36681,-54.63402 -0.36667,-19.0669 -0.73335,-21.6336 -6.96676,-28.60035 -6.23341,-6.96676 -14.30017,-12.10015 -14.30017,-12.10015 z"
         id="path27" />
      <path
         style="fill:url(#linearGradient4);fill-opacity:1;stroke:none;stroke-width:0;stroke-dasharray:none"
         d="m 858.72116,568.59164 h -118.489 c 0,0 -22.29771,0.77783 -21.00133,19.1864 1.29638,18.40858 18.1493,11.40813 17.1122,31.63164 -1.03711,20.22351 -13.22307,20.48278 -19.44568,19.1864 -6.22262,-1.29638 -21.26061,-10.88958 -21.26061,-10.88958 0,0 -6.48189,19.70496 -12.44523,27.7425 -5.96335,8.03755 -16.85293,23.85337 -16.85293,23.85337 0,0 30.33526,-1.81493 44.07687,-6.22262 13.74162,-4.40768 32.67124,-8.2925 46.15108,-16.07509 13.47985,-7.78259 21.00133,-12.44524 24.11264,-17.63075 3.11131,-5.18551 5.44479,-16.59365 -3.88913,-27.22395 -9.33393,-10.6303 -22.81627,-14.77872 -12.96379,-18.92713 9.85248,-4.14841 34.48367,0.25928 39.15063,7.77827 4.66697,7.519 6.4819,13.48234 6.4819,13.48234 0,0 44.59542,-39.15063 49.26238,-45.8918 z"
         id="path35" />
      <path
         style="fill:url(#linearGradient4);fill-opacity:1;stroke:none;stroke-width:0;stroke-dasharray:none"
         d="m 806.49337,607.02422 c 0,0 -3.66671,-7.51676 -10.26679,-11.00013 -6.60008,-3.48338 10.8168,2.93337 10.8168,2.93337 z"
         id="path36" />
      <path
         style="fill:url(#linearGradient4);fill-opacity:1;stroke:none;stroke-width:0;stroke-dasharray:none"
         d="m 724.41634,599.57509 c 0,0 11.53777,13.48233 11.66741,19.96423 0.12964,6.48189 8.5561,-14.3898 8.5561,-14.3898 l -14.3898,-9.98212 z"
         id="path37" />
      <path
         style="fill:url(#linearGradient4);fill-opacity:1;stroke:none;stroke-width:0;stroke-dasharray:none"
         d="m 666.6083,678.89178 c 0,0 70.58421,-0.91667 107.068,-32.81707 36.48378,-31.9004 -69.4842,6.23341 -69.4842,6.23341 z"
         id="path38" />
      <path
         style="fill:url(#linearGradient4);fill-opacity:1;stroke:none;stroke-width:0;stroke-dasharray:none"
         d="m 391.60487,288.66193 c 0,0 23.6503,-2.84171 38.31715,26.21699 14.66685,29.05869 -38.31715,-26.21699 -38.31715,-26.21699 z"
         id="path39" />
      <path
         style="fill:url(#linearGradient4);fill-opacity:1;stroke:none;stroke-width:0;stroke-dasharray:none"
         d="m 470.9892,462.55576 c 0,0 2.93337,29.70037 13.20016,8.98344 10.26679,-20.71692 10.8168,-20.62525 10.8168,-20.62525 0,0 3.66671,33.36708 3.39171,33.91708 -0.275,0.55001 -12.28349,10.08346 -14.94185,11.09181 -2.65837,1.00835 -25.30032,2.93337 -26.67533,-1.10001 -1.37502,-4.03339 4.12505,-26.217 5.59173,-27.50035 1.46669,-1.28335 9.25845,-5.04173 9.25845,-5.04173 z"
         id="path40" />
      <path
         id="path41"
         style="fill:url(#linearGradient4);fill-opacity:1;stroke:none;stroke-width:0;stroke-dasharray:none"
         d="M 584.00781 568.08203 C 582.2518 568.03047 580.99023 568.15625 580.99023 568.15625 C 580.99023 568.15625 565.03948 568.52344 551.47266 568.52344 C 537.90584 568.52344 534.23926 595.10828 528.00586 599.875 C 521.77246 604.64173 518.1065 602.80746 518.83984 588.14062 C 519.57318 573.47379 503.07227 568.70703 503.07227 568.70703 C 503.07227 568.70703 479.60502 561.3746 473.73828 606.8418 C 467.87155 652.30898 447.70508 679.07422 447.70508 679.07422 L 479.24023 679.07422 C 479.24023 679.07422 489.14033 659.64057 491.70703 652.67383 C 494.27373 645.70709 504.17291 629.57494 504.90625 645.3418 C 505.6396 661.10864 513.33954 657.80901 528.37305 644.24219 C 539.79994 633.93012 537.44904 641.82701 533.25195 649.27344 C 533.10499 649.55864 532.95512 649.86009 532.8125 650.13477 C 531.06823 653.49411 521.23173 679.26918 521.16602 679.44141 L 547.07422 679.44141 C 547.07422 679.44141 547.44101 682.37513 548.54102 671.375 C 549.64102 660.37488 557.34104 631.40747 566.50781 615.64062 C 575.67458 599.87377 583.92424 596.94119 592.54102 581.54102 C 599.00359 569.99088 589.27584 568.23672 584.00781 568.08203 z " />
      <path
         style="fill:url(#linearGradient4);fill-opacity:1;stroke:none;stroke-width:0;stroke-dasharray:none"
         d="m 603.90752,596.02409 c 0,0 -14.11685,-15.03353 -29.15037,29.8837 -15.03352,44.91723 25.66699,-20.16692 25.66699,-20.16692 z"
         id="path43" />
      <path
         style="fill:url(#linearGradient4);fill-opacity:1;stroke:none;stroke-width:0;stroke-dasharray:none"
         d="m 569.80709,635.89958 c 0,0 9.16678,-23.00862 13.01683,-29.05869 3.85005,-6.05008 -2.75003,17.14188 -2.75003,17.14188 l -9.35012,14.39184 z"
         id="path44" />
    </g>
  </g>
  <g
     inkscape:groupmode="layer"
     id="layer2"
     inkscape:label="gradient mask"
     style="display:inline" />
</svg>
