<svg version="1.1" id="Layer_1" xmlns="http://www.w3.org/2000/svg" xmlns:xlink="http://www.w3.org/1999/xlink" x="0px" y="0px"
	 width="100%" viewBox="0 0 150 150" enable-background="new 0 0 150 150" xml:space="preserve">
<path fill="#000000" opacity="1.000000" stroke="none" 
	d="
M102.000000,151.000000 
	C68.000000,151.000000 34.500000,151.000000 1.000000,151.000000 
	C1.000000,101.000000 1.000000,51.000000 1.000000,1.000000 
	C51.000000,1.000000 101.000000,1.000000 151.000000,1.000000 
	C151.000000,51.000000 151.000000,101.000000 151.000000,151.000000 
	C134.833328,151.000000 118.666664,151.000000 102.000000,151.000000 
M134.600861,100.772316 
	C135.059311,100.041931 135.517761,99.311539 136.033646,98.489647 
	C135.328171,98.238533 135.036331,98.043823 134.744354,98.043617 
	C100.790215,98.019218 66.836052,98.004753 32.881908,98.023117 
	C31.980215,98.023605 30.618191,98.080208 30.248026,98.632004 
	C26.339363,104.458542 22.588821,110.391136 18.534876,116.698708 
	C20.037916,116.858566 20.678089,116.986053 21.318289,116.986198 
	C49.114166,116.992218 76.910423,117.054855 104.705452,116.898903 
	C108.261864,116.878952 111.819817,115.754890 115.363213,115.070641 
	C123.769775,113.447289 128.391937,106.670677 134.600861,100.772316 
M85.941238,51.507679 
	C87.099411,49.961681 88.257584,48.415680 90.071892,45.993835 
	C82.967690,45.993835 77.306511,45.830566 71.660637,46.053986 
	C68.174477,46.191933 65.139565,45.745888 62.975082,42.743439 
	C61.245060,40.343643 59.773571,40.847908 57.755196,42.658390 
	C54.843567,45.270115 53.898045,47.486584 57.585930,50.114521 
	C58.798100,50.978302 59.818680,52.110950 60.964828,53.155235 
	C52.174805,66.353333 43.532303,79.329933 34.646423,92.671967 
	C56.413345,92.671967 77.558556,92.671967 99.375816,92.671967 
	C92.108383,82.547722 85.222343,72.954796 77.302986,61.922367 
	C85.784988,63.921280 88.590820,59.038460 92.435448,54.138660 
	C89.488289,54.138660 87.489799,54.164719 85.499489,54.049511 
	C85.414192,54.044571 85.404434,52.734634 85.941238,51.507679 
M79.395119,35.961506 
	C78.582245,35.008659 77.769371,34.055813 76.603889,32.689644 
	C74.610489,35.631649 72.705330,38.443432 70.372467,41.886448 
	C76.290535,41.886448 81.113136,41.937206 85.934135,41.871120 
	C90.138832,41.813492 92.410728,39.099705 92.493790,33.986992 
	C90.109596,35.054165 87.808960,36.083935 85.436531,37.145840 
	C85.084824,35.534992 84.799843,34.229748 84.420425,32.491974 
	C82.685097,33.910797 81.433830,34.933846 79.395119,35.961506 
z"/>
<path fill="#FEFEFE" opacity="1.000000" stroke="none" 
	d="
M134.316605,101.028618 
	C128.391937,106.670677 123.769775,113.447289 115.363213,115.070641 
	C111.819817,115.754890 108.261864,116.878952 104.705452,116.898903 
	C76.910423,117.054855 49.114166,116.992218 21.318289,116.986198 
	C20.678089,116.986053 20.037916,116.858566 18.534876,116.698708 
	C22.588821,110.391136 26.339363,104.458542 30.248026,98.632004 
	C30.618191,98.080208 31.980215,98.023605 32.881908,98.023117 
	C66.836052,98.004753 100.790215,98.019218 134.744354,98.043617 
	C135.036331,98.043823 135.328171,98.238533 136.033646,98.489647 
	C135.517761,99.311539 135.059311,100.041931 134.316605,101.028618 
z"/>
<path fill="#FCFCFC" opacity="1.000000" stroke="none" 
	d="
M85.650360,51.770149 
	C85.404434,52.734634 85.414192,54.044571 85.499489,54.049511 
	C87.489799,54.164719 89.488289,54.138660 92.435448,54.138660 
	C88.590820,59.038460 85.784988,63.921280 77.302986,61.922367 
	C85.222343,72.954796 92.108383,82.547722 99.375816,92.671967 
	C77.558556,92.671967 56.413345,92.671967 34.646423,92.671967 
	C43.532303,79.329933 52.174805,66.353333 60.964828,53.155235 
	C59.818680,52.110950 58.798100,50.978302 57.585930,50.114521 
	C53.898045,47.486584 54.843567,45.270115 57.755196,42.658390 
	C59.773571,40.847908 61.245060,40.343643 62.975082,42.743439 
	C65.139565,45.745888 68.174477,46.191933 71.660637,46.053986 
	C77.306511,45.830566 82.967690,45.993835 90.071892,45.993835 
	C88.257584,48.415680 87.099411,49.961681 85.650360,51.770149 
z"/>
<path fill="#EAEBED" opacity="1.000000" stroke="none" 
	d="
M79.788849,35.959198 
	C81.433830,34.933846 82.685097,33.910797 84.420425,32.491974 
	C84.799843,34.229748 85.084824,35.534992 85.436531,37.145840 
	C87.808960,36.083935 90.109596,35.054165 92.493790,33.986992 
	C92.410728,39.099705 90.138832,41.813492 85.934135,41.871120 
	C81.113136,41.937206 76.290535,41.886448 70.372467,41.886448 
	C72.705330,38.443432 74.610489,35.631649 76.603889,32.689644 
	C77.769371,34.055813 78.582245,35.008659 79.788849,35.959198 
z"/>
</svg>