<?xml version="1.0" encoding="UTF-8" standalone="no"?>
<!-- Created with Inkscape (http://www.inkscape.org/) -->

<svg
   version="1.1"
   id="svg1"
   width="737.38013"
   height="531.28369"
   viewBox="0 0 737.38013 531.28369"
   sodipodi:docname="aqua-sticker-art.svg"
   inkscape:version="1.3.2 (091e20e, 2023-11-25, custom)"
   inkscape:export-filename="final-aqua-sticker-art.png"
   inkscape:export-xdpi="1200"
   inkscape:export-ydpi="1200"
   xmlns:inkscape="http://www.inkscape.org/namespaces/inkscape"
   xmlns:sodipodi="http://sodipodi.sourceforge.net/DTD/sodipodi-0.dtd"
   xmlns:xlink="http://www.w3.org/1999/xlink"
   xmlns="http://www.w3.org/2000/svg"
   xmlns:svg="http://www.w3.org/2000/svg">
  <defs
     id="defs1">
    <linearGradient
       id="linearGradient3"
       inkscape:collect="always">
      <stop
         style="stop-color:#000000;stop-opacity:1;"
         offset="0"
         id="stop3" />
      <stop
         style="stop-color:#338085;stop-opacity:1;"
         offset="1"
         id="stop4" />
    </linearGradient>
    <linearGradient
       inkscape:collect="always"
       xlink:href="#linearGradient3"
       id="linearGradient4"
       x1="120.16431"
       y1="418.17828"
       x2="858.72113"
       y2="418.17828"
       gradientUnits="userSpaceOnUse" />
    <linearGradient
       inkscape:collect="always"
       xlink:href="#linearGradient3"
       id="linearGradient5"
       gradientUnits="userSpaceOnUse"
       x1="120.16431"
       y1="418.17828"
       x2="858.72113"
       y2="418.17828" />
    <linearGradient
       inkscape:collect="always"
       xlink:href="#linearGradient3"
       id="linearGradient6"
       gradientUnits="userSpaceOnUse"
       x1="120.16431"
       y1="418.17828"
       x2="858.72113"
       y2="418.17828" />
    <linearGradient
       inkscape:collect="always"
       xlink:href="#linearGradient3"
       id="linearGradient7"
       gradientUnits="userSpaceOnUse"
       x1="120.16431"
       y1="418.17828"
       x2="858.72113"
       y2="418.17828" />
    <linearGradient
       inkscape:collect="always"
       xlink:href="#linearGradient3"
       id="linearGradient8"
       gradientUnits="userSpaceOnUse"
       x1="120.16431"
       y1="418.17828"
       x2="858.72113"
       y2="418.17828"
       gradientTransform="translate(0,-1.0371028)" />
    <linearGradient
       inkscape:collect="always"
       xlink:href="#linearGradient3"
       id="linearGradient9"
       gradientUnits="userSpaceOnUse"
       x1="120.16431"
       y1="418.17828"
       x2="858.72113"
       y2="418.17828" />
    <linearGradient
       inkscape:collect="always"
       xlink:href="#linearGradient3"
       id="linearGradient11"
       gradientUnits="userSpaceOnUse"
       x1="120.16431"
       y1="418.17828"
       x2="858.72113"
       y2="418.17828" />
    <linearGradient
       inkscape:collect="always"
       xlink:href="#linearGradient3"
       id="linearGradient12"
       gradientUnits="userSpaceOnUse"
       x1="120.16431"
       y1="418.17828"
       x2="858.72113"
       y2="418.17828" />
    <linearGradient
       inkscape:collect="always"
       xlink:href="#linearGradient3"
       id="linearGradient13"
       gradientUnits="userSpaceOnUse"
       x1="120.16431"
       y1="418.17828"
       x2="858.72113"
       y2="418.17828" />
    <linearGradient
       inkscape:collect="always"
       xlink:href="#linearGradient3"
       id="linearGradient14"
       gradientUnits="userSpaceOnUse"
       x1="120.16431"
       y1="418.17828"
       x2="858.72113"
       y2="418.17828" />
    <linearGradient
       inkscape:collect="always"
       xlink:href="#linearGradient3"
       id="linearGradient15"
       gradientUnits="userSpaceOnUse"
       x1="120.16431"
       y1="418.17828"
       x2="858.72113"
       y2="418.17828" />
    <linearGradient
       inkscape:collect="always"
       xlink:href="#linearGradient3"
       id="linearGradient16"
       gradientUnits="userSpaceOnUse"
       x1="120.16431"
       y1="418.17828"
       x2="858.72113"
       y2="418.17828" />
    <linearGradient
       inkscape:collect="always"
       xlink:href="#linearGradient3"
       id="linearGradient17"
       gradientUnits="userSpaceOnUse"
       x1="120.16431"
       y1="418.17828"
       x2="858.72113"
       y2="418.17828" />
    <linearGradient
       inkscape:collect="always"
       xlink:href="#linearGradient3"
       id="linearGradient18"
       gradientUnits="userSpaceOnUse"
       x1="120.16431"
       y1="418.17828"
       x2="858.72113"
       y2="418.17828" />
    <linearGradient
       inkscape:collect="always"
       xlink:href="#linearGradient3"
       id="linearGradient19"
       gradientUnits="userSpaceOnUse"
       x1="120.16431"
       y1="418.17828"
       x2="858.72113"
       y2="418.17828" />
    <linearGradient
       inkscape:collect="always"
       xlink:href="#linearGradient3"
       id="linearGradient20"
       gradientUnits="userSpaceOnUse"
       x1="120.16431"
       y1="418.17828"
       x2="858.72113"
       y2="418.17828" />
    <linearGradient
       inkscape:collect="always"
       xlink:href="#linearGradient3"
       id="linearGradient21"
       gradientUnits="userSpaceOnUse"
       x1="120.16431"
       y1="418.17828"
       x2="858.72113"
       y2="418.17828" />
    <linearGradient
       inkscape:collect="always"
       xlink:href="#linearGradient3"
       id="linearGradient22"
       gradientUnits="userSpaceOnUse"
       x1="120.16431"
       y1="418.17828"
       x2="858.72113"
       y2="418.17828" />
    <linearGradient
       inkscape:collect="always"
       xlink:href="#linearGradient3"
       id="linearGradient23"
       gradientUnits="userSpaceOnUse"
       x1="120.16431"
       y1="418.17828"
       x2="858.72113"
       y2="418.17828" />
    <linearGradient
       inkscape:collect="always"
       xlink:href="#linearGradient3"
       id="linearGradient24"
       gradientUnits="userSpaceOnUse"
       x1="120.16431"
       y1="418.17828"
       x2="858.72113"
       y2="418.17828" />
    <linearGradient
       inkscape:collect="always"
       xlink:href="#linearGradient3"
       id="linearGradient25"
       gradientUnits="userSpaceOnUse"
       x1="120.16431"
       y1="418.17828"
       x2="858.72113"
       y2="418.17828" />
  </defs>
  <sodipodi:namedview
     id="namedview1"
     pagecolor="#ffffff"
     bordercolor="#000000"
     borderopacity="0.25"
     inkscape:showpageshadow="2"
     inkscape:pageopacity="0.0"
     inkscape:pagecheckerboard="0"
     inkscape:deskcolor="#d1d1d1"
     inkscape:zoom="0.96422452"
     inkscape:cx="333.42857"
     inkscape:cy="222.45856"
     inkscape:window-width="2100"
     inkscape:window-height="1224"
     inkscape:window-x="-9"
     inkscape:window-y="-9"
     inkscape:window-maximized="1"
     inkscape:current-layer="g3">
    <inkscape:page
       x="0"
       y="0"
       inkscape:label="1"
       id="page1"
       width="737.38013"
       height="531.28369"
       margin="0"
       bleed="0"
       inkscape:export-filename="..\..\OneDrive\Documents\Desktop\aqua-sticker-art.png"
       inkscape:export-xdpi="1562.2878"
       inkscape:export-ydpi="1562.2878" />
  </sodipodi:namedview>
  <g
     inkscape:groupmode="layer"
     id="layer1"
     inkscape:label="2"
     style="display:inline"
     transform="translate(-121.34103,-152.55815)">
    <g
       id="g3"
       style="fill:url(#linearGradient4);stroke-width:0;stroke-dasharray:none">
      <path
         style="fill:url(#linearGradient5);fill-opacity:1;stroke:#225646;stroke-width:0;stroke-dasharray:none;stroke-opacity:1"
         d="m 121.34103,683.45079 85.04244,-87.11664 -27.54804,-1.87975 15.50032,-23.91396 88.73444,-1.10001 -16.5002,29.33369 h -32.26707 l -75.53428,85.06773 z"
         id="path1" />
      <path
         id="path22"
         style="display:inline;fill:url(#linearGradient6);stroke:#225646;stroke-width:0;stroke-dasharray:none"
         d="m 446.13086,568.83789 c -28.45489,-0.25934 -32.38011,21.78319 -41.21094,38.38086 -8.83083,16.59769 -11.03772,49.79356 -7.60351,59.64844 3.43421,9.85487 21.09483,16.85757 35.32226,12.18945 14.22746,-4.66809 19.37949,-9.07674 31.64453,-58.0918 12.26503,-49.01504 -18.15234,-52.12695 -18.15234,-52.12695 z m -12.78906,41.08984 c 0.41807,-0.005 0.77716,0.0291 1.07031,0.0566 0,0 7.46283,2.86012 4.1582,13.41796 -3.30462,10.55784 -2.87905,11.32763 -7.46289,14.62696 -4.58384,3.29931 -9.59353,2.19902 -11.08594,-5.60938 -1.49241,-7.8084 5.43541,-17.48748 8.20704,-20.12695 2.07871,-1.97959 3.85905,-2.34977 5.11328,-2.36524 z" />
      <path
         style="fill:url(#linearGradient7);fill-opacity:1;stroke:#225646;stroke-width:0;stroke-dasharray:none;stroke-opacity:1"
         d="m 481.25599,153.08524 -32.26706,46.01724 0.55,0.55001 102.85128,0.55 27.22065,-38.2524 0.22687,-0.93987 0.0972,-0.55096 -0.19446,-0.42132 c 0,0 -0.25927,-0.29169 -0.42132,-0.29169 -0.16205,0 -1.16674,0.29169 -1.16674,0.29169 l -1.23156,0.45373 -1.16674,0.55096 -37.62739,18.11689 -1.97698,0.22687 -3.37058,-0.48615 -2.26867,-1.13433 -1.45842,-1.55565 -0.90747,-1.87975 -0.84264,-1.97698 -0.25928,-2.00938 0.19446,-2.98168 1.77775,-13.08555 -0.0687,-0.93959 -0.4125,-0.59584 -0.43543,-0.18334 -0.75625,0.34375 -1.23752,0.91668 c 0,0 -21.38152,19.80025 -29.17328,23.74196 -7.79176,3.94172 -11.27514,-5.22506 -11.27514,-5.22506 l -3.11671,-16.95854 c 0,0 -0.14116,-3.86442 -1.28335,-2.2917 z"
         id="path6" />
      <path
         id="path26"
         style="display:inline;fill:url(#linearGradient8);stroke:#225646;stroke-width:0;stroke-dasharray:none"
         d="m 391.61328,288.14259 c -9.60889,-0.48741 -26.87692,7.75615 -38.99805,65.50976 -17.63073,84.00525 -8.81637,141.04503 -4.66796,156.60157 4.1484,15.55652 20.22374,22.29783 35.26171,19.70507 15.03799,-2.59275 26.96489,-26.44531 32.1504,-26.44531 5.18551,0 12.44531,24.89063 12.44531,24.89063 h 24.89062 c 0,0 -26.96384,-41.48452 -23.33398,-60.15235 3.62985,-18.66783 21.25971,-34.74261 14,-93.85742 -7.25971,-59.1148 -13.48251,-61.70809 -24.89063,-72.59766 -11.40812,-10.88956 -11.92681,-8.81544 -19.70508,-11.4082 0,0 -2.78466,-2.02454 -7.15234,-2.24609 z m 6.07813,74.97656 c 0.55218,-0.0183 1.02687,0.10341 1.41406,0.20117 0,0 9.85689,10.16876 5.49219,47.71289 -4.36471,37.54413 -3.80315,40.28113 -9.85743,52.01367 -6.05428,11.73252 -12.67143,7.82171 -14.64257,-19.94531 -1.97118,-27.767 7.18106,-62.1823 10.84179,-71.56836 2.74553,-7.03951 5.09539,-8.35905 6.75196,-8.41406 z" />
      <path
         id="path7"
         style="fill:url(#linearGradient9);fill-opacity:1;stroke:#225646;stroke-width:0;stroke-dasharray:none;stroke-opacity:1"
         d="m 538.77539,422.61914 -9.59375,16.85352 c -9.5932,16.8529 -5.44484,24.37075 -8.29687,43.8164 -2.85203,19.44566 -11.14844,46.15235 -11.14844,46.15235 l 26.96484,0.25976 c 0,0 2.85208,-25.41066 7.25977,-27.74414 4.40768,-2.33349 5.96244,-1.29541 11.92578,-1.55469 5.96334,-0.25927 7.7793,4.40821 7.7793,4.40821 l 11.4082,25.14843 42.52148,0.25977 z m 9.25586,37.95703 c 0.34094,0.0279 0.63265,0.47274 0.85547,1.45313 1.29638,5.70405 14.77829,17.62991 10.11133,21.25976 -4.66696,3.62986 -8.29643,5.44481 -14.25977,3.11133 0,0 -4.92577,-3.62847 -2.85156,-10.62891 1.71769,-5.79724 4.50184,-15.32966 6.14453,-15.19531 z" />
      <path
         style="fill:#193f42;fill-opacity:1;stroke:#225646;stroke-width:0;stroke-dasharray:none;stroke-opacity:1"
         d="m 510.51388,383.98733 20.48279,28.00178 c 0,0 -10.37103,7.519 -17.37148,44.8547 -7.00044,37.3357 -2.0742,59.37414 -9.85247,68.18951 -7.77828,8.81538 -21.51989,5.96335 -21.51989,5.96335 0,0 -10.6303,2.0742 -18.92713,-4.66697 -8.29682,-6.74117 -9.85247,-8.03754 -15.81581,-23.07554 -5.96335,-15.03799 5.96334,-93.33925 5.96334,-93.33925 0,0 3.88913,-18.40858 1.55565,-38.63209 -2.33348,-20.2235 -5.18551,-42.00266 -5.18551,-42.00266 0,0 28.00177,18.92713 32.92801,28.7796 4.92624,9.85248 -4.14841,51.85515 -4.14841,51.85515 0,0 -8.81537,37.3357 -8.03755,53.15152 0.77783,15.81582 -1.81493,10.6303 3.88914,18.92713 5.70407,8.29682 14.77872,-23.33482 14.77872,-23.33482 0,0 4.14841,-15.81582 7.77827,-30.85381 3.62986,-15.03799 7.00044,-41.22484 13.48233,-43.8176 z"
         id="path8" />
      <path
         id="path11"
         style="fill:url(#linearGradient11);fill-opacity:1;stroke:#225646;stroke-width:0;stroke-dasharray:none;stroke-opacity:1"
         d="m 598.01953,594.32422 c -2.46312,0.0648 -5.83303,1.75054 -9.46289,8.23242 -7.25971,12.96378 -17.1133,25.92784 -20.22461,40.44727 -3.11131,14.51942 -6.22157,27.48248 9.85352,35.77929 16.07507,8.29682 28.51953,-13.48242 28.51953,-13.48242 0,0 7.25976,-7.25892 8.29687,-26.44531 1.0371,-19.18638 -1.55571,-33.18657 -7.25976,-38.89063 -5.70407,-5.70406 -5.70313,-4.14843 -5.70313,-4.14843 0,0 -1.55641,-1.55701 -4.01953,-1.49219 z m -1.29687,31.5664 c 0,0 4.14842,1.03769 2.07422,12.70508 -2.07421,11.6674 -15.68603,17.2421 -13.8711,3.75977 1.81493,-13.48233 9.33377,-16.33521 11.79688,-16.46485 z" />
      <path
         style="fill:url(#linearGradient12);fill-opacity:1;stroke:#225646;stroke-width:0;stroke-dasharray:none;stroke-opacity:1"
         d="m 386.47148,279.40348 c 0,0 14.66685,-7.33342 37.03379,13.20016 22.36695,20.53359 56.83405,41.80052 70.76755,41.06718 13.93351,-0.73334 35.93378,-0.73334 35.93378,-0.73334 l 41.80052,-44.36722 -45.46723,-1.10001 c 0,0 -8.80011,-2.93337 -4.40005,-9.53346 4.40005,-6.60008 31.53372,-39.60049 31.53372,-39.60049 l -145.20181,-0.36667 -33.00041,-33.73375 -30.06704,30.43371 41.43385,41.43385 z"
         id="path14" />
      <path
         id="path13"
         style="fill:url(#linearGradient13);stroke:#225646;stroke-width:0;stroke-dasharray:none"
         d="m 258.75781,610.33594 c -15.03797,1.0371 -13.22379,0.25793 -35.52148,15.81445 -22.29769,15.55653 -23.07568,35.00297 -21.7793,40.70703 1.29638,5.70406 25.92798,36.29901 59.11524,-7 33.18725,-43.29899 -1.81446,-49.52148 -1.81446,-49.52148 z m -11.93359,22.23047 c 0.6844,-0.007 1.37517,0.0178 2.08008,0.0664 0,0 6.74141,1.55575 0.64843,12.44531 -6.09296,10.88957 -14.77761,12.05688 -18.53711,10.63086 -3.75949,-1.42601 -3.24169,-9.07473 -0.9082,-12.44531 2.33348,-3.37058 3.62967,-5.31545 7.64844,-7.9082 3.26525,-2.10662 6.10264,-2.75779 9.06836,-2.78906 z" />
      <path
         style="fill:url(#linearGradient14);stroke:#225646;stroke-width:0;stroke-dasharray:none"
         d="m 410.43345,568.85092 c 0,0 -29.8167,110.45145 -61.96689,111.22928 -32.15019,0.77782 -7.25972,-48.22529 -25.14975,-47.96601 -17.89002,0.25928 -21.2606,48.22528 -21.2606,48.22528 l -36.03933,1.03711 c 0,0 21.77916,-32.15019 23.59409,-51.07732 1.81493,-18.92713 -13.48234,-30.85381 -13.48234,-30.85381 l 15.038,-29.55743 c 0,0 38.11353,-4.40769 47.44745,13.48234 9.33393,17.89002 0.25928,32.66874 11.14886,34.74294 10.88958,2.07421 24.63119,-48.74383 24.63119,-48.74383 z"
         id="path24" />
      <path
         id="path25"
         style="fill:url(#linearGradient15);stroke:#225646;stroke-width:0;stroke-dasharray:none"
         d="m 340.92969,357.39648 c -2.26305,-0.44115 -6.25136,3.40849 -12.75977,13.3086 -26.03363,39.60046 -105.59961,160.60156 -105.59961,160.60156 l 32.26563,-0.36719 c 0,0 15.40038,-37.40037 27.86718,-49.86718 12.46681,-12.46681 17.23392,-7.33324 23.83399,-4.03321 6.60007,3.30004 -5.13281,54.26758 -5.13281,54.26758 l 38.5,-0.73242 c 0,0 -7.33273,-59.40213 -3.66602,-100.83594 2.75003,-31.07536 11.48055,-71.01834 4.69141,-72.3418 z m -18.4043,48.34766 c 5.87162,-0.33198 -9.32566,47.62295 -9.44922,48.11719 -0.12964,0.51855 -6.35332,-6.9995 -12.96484,-4.66602 0,0 12.96417,-37.46464 21.39062,-43.03906 0.39499,-0.2613 0.73467,-0.39578 1.02344,-0.41211 z" />
      <path
         style="fill:url(#linearGradient16);stroke:#225646;stroke-width:0;stroke-dasharray:none"
         d="m 609.77426,568.34041 33.36708,-0.36667 c 0,0 15.76686,16.86687 8.80011,46.20057 -6.96676,29.3337 0,38.13381 8.80011,22.00027 8.80011,-16.13353 10.26679,-43.63387 8.80011,-52.80065 -1.46669,-9.16678 -4.40006,-15.40019 -4.40006,-15.40019 h 26.767 c 0,0 6.96676,17.60021 0.36667,39.60049 -6.60008,22.00027 -4.76672,19.43357 -17.23354,41.06718 -12.46683,21.6336 -14.30018,31.16705 -34.10043,30.43371 -19.80025,-0.73334 -19.80025,-4.03338 -21.26693,-15.40019 -1.46669,-11.36681 11.73348,-35.56711 11.36681,-54.63402 -0.36667,-19.0669 -0.73335,-21.6336 -6.96676,-28.60035 -6.23341,-6.96676 -14.30017,-12.10015 -14.30017,-12.10015 z"
         id="path27" />
      <path
         style="fill:url(#linearGradient17);fill-opacity:1;stroke:none;stroke-width:0;stroke-dasharray:none"
         d="m 858.72116,568.59164 h -118.489 c 0,0 -22.29771,0.77783 -21.00133,19.1864 1.29638,18.40858 18.1493,11.40813 17.1122,31.63164 -1.03711,20.22351 -13.22307,20.48278 -19.44568,19.1864 -6.22262,-1.29638 -21.26061,-10.88958 -21.26061,-10.88958 0,0 -6.48189,19.70496 -12.44523,27.7425 -5.96335,8.03755 -16.85293,23.85337 -16.85293,23.85337 0,0 30.33526,-1.81493 44.07687,-6.22262 13.74162,-4.40768 32.67124,-8.2925 46.15108,-16.07509 13.47985,-7.78259 21.00133,-12.44524 24.11264,-17.63075 3.11131,-5.18551 5.44479,-16.59365 -3.88913,-27.22395 -9.33393,-10.6303 -22.81627,-14.77872 -12.96379,-18.92713 9.85248,-4.14841 34.48367,0.25928 39.15063,7.77827 4.66697,7.519 6.4819,13.48234 6.4819,13.48234 0,0 44.59542,-39.15063 49.26238,-45.8918 z"
         id="path35" />
      <path
         style="fill:url(#linearGradient18);fill-opacity:1;stroke:none;stroke-width:0;stroke-dasharray:none"
         d="m 806.49337,607.02422 c 0,0 -3.66671,-7.51676 -10.26679,-11.00013 -6.60008,-3.48338 10.8168,2.93337 10.8168,2.93337 z"
         id="path36" />
      <path
         style="fill:url(#linearGradient19);fill-opacity:1;stroke:none;stroke-width:0;stroke-dasharray:none"
         d="m 724.41634,599.57509 c 0,0 11.53777,13.48233 11.66741,19.96423 0.12964,6.48189 8.5561,-14.3898 8.5561,-14.3898 l -14.3898,-9.98212 z"
         id="path37" />
      <path
         style="fill:url(#linearGradient20);fill-opacity:1;stroke:none;stroke-width:0;stroke-dasharray:none"
         d="m 666.6083,678.89178 c 0,0 70.58421,-0.91667 107.068,-32.81707 36.48378,-31.9004 -69.4842,6.23341 -69.4842,6.23341 z"
         id="path38" />
      <path
         style="fill:url(#linearGradient21);fill-opacity:1;stroke:none;stroke-width:0;stroke-dasharray:none"
         d="m 391.60487,288.66193 c 0,0 23.6503,-2.84171 38.31715,26.21699 14.66685,29.05869 -38.31715,-26.21699 -38.31715,-26.21699 z"
         id="path39" />
      <path
         style="fill:url(#linearGradient22);fill-opacity:1;stroke:none;stroke-width:0;stroke-dasharray:none"
         d="m 470.9892,462.55576 c 0,0 2.93337,29.70037 13.20016,8.98344 10.26679,-20.71692 10.8168,-20.62525 10.8168,-20.62525 0,0 3.66671,33.36708 3.39171,33.91708 -0.275,0.55001 -12.28349,10.08346 -14.94185,11.09181 -2.65837,1.00835 -25.30032,2.93337 -26.67533,-1.10001 -1.37502,-4.03339 4.12505,-26.217 5.59173,-27.50035 1.46669,-1.28335 9.25845,-5.04173 9.25845,-5.04173 z"
         id="path40" />
      <path
         id="path41"
         style="fill:url(#linearGradient23);fill-opacity:1;stroke:none;stroke-width:0;stroke-dasharray:none"
         d="m 584.00781,568.08203 c -1.75601,-0.0516 -3.01758,0.0742 -3.01758,0.0742 0,0 -15.95075,0.36719 -29.51757,0.36719 -13.56682,0 -17.2334,26.58484 -23.4668,31.35156 -6.2334,4.76673 -9.89936,2.93246 -9.16602,-11.73438 0.73334,-14.66683 -15.76757,-19.43359 -15.76757,-19.43359 0,0 -23.46725,-7.33243 -29.33399,38.13477 -5.86673,45.46718 -26.0332,72.23242 -26.0332,72.23242 h 31.53515 c 0,0 9.9001,-19.43365 12.4668,-26.40039 2.5667,-6.96674 12.46588,-23.09889 13.19922,-7.33203 0.73335,15.76684 8.43329,12.46721 23.4668,-1.09961 11.42689,-10.31207 9.07599,-2.41518 4.8789,5.03125 -0.14696,0.2852 -0.29683,0.58665 -0.43945,0.86133 -1.74427,3.35934 -11.58077,29.13441 -11.64648,29.30664 h 25.9082 c 0,0 0.36679,2.93372 1.4668,-8.06641 1.1,-11.00012 8.80002,-39.96753 17.96679,-55.73438 9.16677,-15.76685 17.41643,-18.69943 26.03321,-34.0996 6.46257,-11.55014 -3.26518,-13.3043 -8.53321,-13.45899 z" />
      <path
         style="fill:url(#linearGradient24);fill-opacity:1;stroke:none;stroke-width:0;stroke-dasharray:none"
         d="m 603.90752,596.02409 c 0,0 -14.11685,-15.03353 -29.15037,29.8837 -15.03352,44.91723 25.66699,-20.16692 25.66699,-20.16692 z"
         id="path43" />
      <path
         style="fill:url(#linearGradient25);fill-opacity:1;stroke:none;stroke-width:0;stroke-dasharray:none"
         d="m 569.80709,635.89958 c 0,0 9.16678,-23.00862 13.01683,-29.05869 3.85005,-6.05008 -2.75003,17.14188 -2.75003,17.14188 l -9.35012,14.39184 z"
         id="path44" />
    </g>
  </g>
  <g
     inkscape:groupmode="layer"
     id="layer2"
     inkscape:label="gradient mask"
     style="display:inline"
     transform="translate(-121.34103,-152.55815)" />
</svg>
